<svg width="134" height="24" viewBox="0 0 134 24" fill="none" xmlns="http://www.w3.org/2000/svg">
<path d="M0 1H134V2C134 14.1503 124.15 24 112 24H22C9.84973 24 0 14.1503 0 2V1Z" fill="white"/>
<g filter="url(#filter0_i_49_15)">
<path d="M48 6C48 4.34315 49.3431 3 51 3H82C83.6569 3 85 4.34315 85 6C85 7.65685 83.6569 9 82 9H51C49.3431 9 48 7.65685 48 6Z" fill="black" fill-opacity="0.01"/>
<path d="M106 6C106 9.31371 103.314 12 100 12C96.6863 12 94 9.31371 94 6C94 2.68629 96.6863 0 100 0C103.314 0 106 2.68629 106 6Z" fill="black" fill-opacity="0.01"/>
</g>
<defs>
<filter id="filter0_i_49_15" x="48" y="0" width="58" height="16" filterUnits="userSpaceOnUse" color-interpolation-filters="sRGB">
<feFlood flood-opacity="0" result="BackgroundImageFix"/>
<feBlend mode="normal" in="SourceGraphic" in2="BackgroundImageFix" result="shape"/>
<feColorMatrix in="SourceAlpha" type="matrix" values="0 0 0 0 0 0 0 0 0 0 0 0 0 0 0 0 0 0 127 0" result="hardAlpha"/>
<feOffset dy="4"/>
<feGaussianBlur stdDeviation="2"/>
<feComposite in2="hardAlpha" operator="arithmetic" k2="-1" k3="1"/>
<feColorMatrix type="matrix" values="0 0 0 0 0 0 0 0 0 0 0 0 0 0 0 0 0 0 0.1 0"/>
<feBlend mode="normal" in2="shape" result="effect1_innerShadow_49_15"/>
</filter>
</defs>
</svg>
