<svg width="361" height="740" viewBox="0 0 361 740" fill="none" xmlns="http://www.w3.org/2000/svg">
<path d="M0 123C0 121.343 1.34315 120 3 120H5V145H3C1.34315 145 0 143.657 0 142V123Z" fill="white"/>
<path d="M0 172C0 170.343 1.34315 169 3 169H5V220H3C1.34315 220 0 218.657 0 217V172Z" fill="white"/>
<path d="M0 237C0 235.343 1.34315 234 3 234H5V285H3C1.34315 285 0 283.657 0 282V237Z" fill="white"/>
<path d="M3 50C3 22.3858 25.3858 0 53 0H311C338.614 0 361 22.3858 361 50V690C361 717.614 338.614 740 311 740H53C25.3858 740 3 717.614 3 690V50Z" fill="white"/>
</svg>
