<svg width="275" height="10" viewBox="0 0 275 10" fill="none" xmlns="http://www.w3.org/2000/svg">
<path fill-rule="evenodd" clip-rule="evenodd" d="M224.663 4.52381H223.387C223.039 4.52381 222.691 4.88095 222.691 5.2381V9.28572C222.691 9.64286 223.039 10 223.387 10H224.663C225.011 10 225.358 9.64286 225.358 9.28572V5.2381C225.358 4.76191 225.127 4.52381 224.663 4.52381ZM220.719 6.19048H219.443C219.095 6.19048 218.747 6.54762 218.747 6.90476V9.16667C218.747 9.52381 219.095 9.88095 219.443 9.88095H220.719C221.067 9.88095 221.415 9.52381 221.415 9.16667V6.90476C221.415 6.54762 221.067 6.19048 220.719 6.19048ZM228.606 2.5H227.33C226.982 2.5 226.634 2.85714 226.634 3.21429V9.28572C226.634 9.64286 226.982 10 227.33 10H228.606C228.954 10 229.302 9.64286 229.302 9.28572V3.21429C229.302 2.7381 228.954 2.5 228.606 2.5ZM232.434 0.476191H231.158C230.81 0.476191 230.462 0.833333 230.462 1.19048V9.28572C230.462 9.64286 230.81 10 231.158 10H232.434C232.782 10 233.129 9.64286 233.129 9.28572V1.19048C233.129 0.714286 232.897 0.476191 232.434 0.476191ZM243.916 6.78571C243.336 6.78571 242.756 7.02381 242.292 7.26191C242.06 7.38095 242.06 7.7381 242.176 7.97619L243.568 9.52381C243.8 9.76191 244.032 9.76191 244.264 9.52381L245.656 8.09524C245.888 7.85714 245.772 7.5 245.54 7.38095C245.076 7.02381 244.496 6.78571 243.916 6.78571ZM243.916 3.45238C242.408 3.45238 241.016 4.04762 239.973 5C239.741 5.2381 239.741 5.47619 239.973 5.71429L240.668 6.42857C240.784 6.54762 241.132 6.66667 241.248 6.42857C241.944 5.83333 242.988 5.35714 243.916 5.35714C244.96 5.35714 245.888 5.71429 246.584 6.42857C246.816 6.54762 247.048 6.54762 247.164 6.42857L247.86 5.71429C248.091 5.47619 248.091 5.2381 247.86 5C246.816 4.04762 245.424 3.45238 243.916 3.45238ZM243.916 0C241.48 0 239.277 0.952381 237.537 2.5C237.305 2.7381 237.305 2.97619 237.537 3.21429L238.233 3.92857C238.349 4.04762 238.697 4.16667 238.813 3.92857C240.089 2.7381 241.944 1.90476 243.8 1.90476C245.772 1.90476 247.512 2.61905 248.787 3.92857C249.019 4.04762 249.251 4.04762 249.367 3.92857L250.063 3.21429C250.295 2.97619 250.295 2.7381 250.063 2.5C248.555 0.952381 246.352 0 243.916 0ZM270.361 1.78571H256.906C256.442 1.78571 256.094 2.14286 256.094 2.61905V7.38095C256.094 7.85714 256.442 8.21429 256.906 8.21429H270.361C270.825 8.21429 271.172 7.85714 271.172 7.38095V2.61905C271.172 2.2619 270.825 1.78571 270.361 1.78571ZM271.056 0.238095C270.825 0.119048 270.593 0.119048 270.361 0.119048H256.906C256.674 0.119048 256.442 0.119048 256.21 0.238095C255.167 0.595238 254.471 1.54762 254.471 2.7381V7.5C254.471 8.69048 255.167 9.64286 256.21 10C256.442 10.119 256.674 10.119 256.906 10.119H270.361C270.593 10.119 270.825 10.119 271.056 10C272.1 9.64286 272.796 8.69048 272.796 7.5V2.7381C272.796 1.54762 272.1 0.476191 271.056 0.238095ZM271.984 7.38095C271.984 8.33333 271.288 9.04762 270.361 9.04762H256.906C255.978 9.04762 255.283 8.33333 255.283 7.38095V2.61905C255.283 1.66667 255.978 0.952381 256.906 0.952381H270.361C271.288 0.952381 271.984 1.66667 271.984 2.61905V7.38095ZM273.492 3.45238V6.66667C274.304 6.66667 275 5.95238 275 5.11905C275 4.28571 274.304 3.45238 273.492 3.45238ZM9.39477 2.02381C8.81485 2.02381 8.35091 2.5 8.35091 3.21429C8.35091 3.80952 8.81485 4.40476 9.39477 4.40476C9.97469 4.40476 10.4386 3.92857 10.4386 3.21429C10.5546 2.5 9.97469 2.02381 9.39477 2.02381ZM9.39477 6.54762C8.81485 6.54762 8.35091 7.02381 8.35091 7.7381C8.35091 8.33333 8.81485 8.92857 9.39477 8.92857C9.97469 8.92857 10.4386 8.45238 10.4386 7.7381C10.5546 7.02381 9.97469 6.54762 9.39477 6.54762ZM17.7457 0.476191H15.6579L11.9464 6.54762V8.09524H16.2379V9.76191H17.6297V8.09524H18.9055V6.66667H17.6297V0.476191H17.7457ZM16.2379 6.66667H13.3383L16.2379 1.90476V6.66667ZM20.0654 2.2619V3.80952L22.2691 2.14286V9.64286H23.8929V0.476191H22.2691L20.0654 2.2619ZM3.24757 0.357143C0.927878 0.357143 0 1.90476 0 3.57143C0 8.09524 4.75538 6.66667 5.3353 5.35714C5.3353 7.5 4.40742 8.45238 3.24757 8.45238C2.08773 8.45238 1.73977 7.26191 1.73977 7.26191C1.73977 7.26191 0.463939 7.26191 0.115985 7.26191C0.23197 7.85714 0.579924 10 3.24757 10C5.91523 10 6.95909 7.7381 6.95909 4.88095C6.95909 2.14286 5.56727 0.357143 3.24757 0.357143ZM3.36356 5.35714C2.43568 5.35714 1.73977 4.64286 1.73977 3.57143C1.73977 2.2619 2.66765 1.78571 3.36356 1.78571C4.05947 1.78571 5.10333 2.38095 5.10333 3.57143C5.10333 4.64286 4.29144 5.35714 3.36356 5.35714Z" fill="white"/>
</svg>
